HIERARCHY
ROOT Hips
{
	OFFSET -0.001795 -0.223333 0.028219
	CHANNELS 6 Xposition Yposition Zposition Zrotation Yrotation Xrotation 
	JOINT LeftUpLeg
	{
		OFFSET 0.069520 -0.091406 -0.006815
		CHANNELS 3 Zrotation Yrotation Xrotation
		JOINT LeftLeg
		{
			OFFSET 0.034277 -0.375199 -0.004496
			CHANNELS 3 Zrotation Yrotation Xrotation
			JOINT LeftFoot
			{
				OFFSET -0.013596 -0.397961 -0.043693
				CHANNELS 3 Zrotation Yrotation Xrotation
				JOINT LeftToe
				{
					OFFSET 0.026358 -0.055791 0.119288
					CHANNELS 3 Zrotation Yrotation Xrotation
					End Site
					{
						OFFSET 0.000000 0.000000 0.000000
					}
				}
			}
		}
	}
	JOINT RightUpLeg
	{
		OFFSET -0.067670 -0.090522 -0.004320
		CHANNELS 3 Zrotation Yrotation Xrotation
		JOINT RightLeg
		{
			OFFSET -0.038290 -0.382569 -0.008850
			CHANNELS 3 Zrotation Yrotation Xrotation
			JOINT RightFoot
			{
				OFFSET 0.015774 -0.398415 -0.042312
				CHANNELS 3 Zrotation Yrotation Xrotation
				JOINT RightToe
				{
					OFFSET -0.025372 -0.048144 0.123348
					CHANNELS 3 Zrotation Yrotation Xrotation
					End Site
					{
						OFFSET 0.000000 0.000000 0.000000
					}
				}
			}
		}
	}
	JOINT Spine
	{
		OFFSET -0.002533 0.108963 -0.026696
		CHANNELS 3 Zrotation Yrotation Xrotation
		JOINT Spine1
		{
			OFFSET 0.005487 0.135180 0.001092
			CHANNELS 3 Zrotation Yrotation Xrotation
			JOINT Spine2
			{
				OFFSET 0.001457 0.052922 0.025425
				CHANNELS 3 Zrotation Yrotation Xrotation
				JOINT Neck
				{
					OFFSET -0.002778 0.213870 -0.042857
					CHANNELS 3 Zrotation Yrotation Xrotation
					JOINT Head
					{
						OFFSET 0.005152 0.064970 0.051349
						CHANNELS 3 Zrotation Yrotation Xrotation
						End Site
						{
							OFFSET 0.000000 0.000000 0.000000
						}
					}
				}
				JOINT LeftShoulder
				{
					OFFSET 0.078845 0.121749 -0.034090
					CHANNELS 3 Zrotation Yrotation Xrotation
					JOINT LeftArm
					{
						OFFSET 0.090977 0.030469 -0.008868
						CHANNELS 3 Zrotation Yrotation Xrotation
						JOINT LeftForeArm
						{
							OFFSET 0.259612 -0.012772 -0.027456
							CHANNELS 3 Zrotation Yrotation Xrotation
							JOINT LeftHand
							{
								OFFSET 0.249234 0.008986 -0.001171
								CHANNELS 3 Zrotation Yrotation Xrotation
								End Site
								{
									OFFSET 0.000000 0.000000 0.000000
								}
							}
						}
					}
				}
				JOINT RightShoulder
				{
					OFFSET -0.081759 0.118833 -0.038615
					CHANNELS 3 Zrotation Yrotation Xrotation
					JOINT RightArm
					{
						OFFSET -0.096012 0.032551 -0.009143
						CHANNELS 3 Zrotation Yrotation Xrotation
						JOINT RightForeArm
						{
							OFFSET -0.253742 -0.013329 -0.021401
							CHANNELS 3 Zrotation Yrotation Xrotation
							JOINT RightHand
							{
								OFFSET -0.255298 0.007772 -0.005559
								CHANNELS 3 Zrotation Yrotation Xrotation
								End Site
								{
									OFFSET 0.000000 0.000000 0.000000
								}
							}
						}
					}
				}
			}
		}
	}
}
MOTION
Frames: 14
Frame Time: 0.050000
0.059358 0.522047 0.032839 5.431064 -0.065634 54.047250 9.868681 -1.051099 30.969519 -16.125310 -5.971160 -75.159673 45.920229 26.060455 108.003258 0.000000 0.000000 0.000000 -18.992553 3.931056 30.399988 26.732546 5.933936 -56.206491 -46.796377 -30.493645 104.596214 0.000000 0.000000 0.000000 -0.441397 0.280044 -6.430961 24.085503 17.150942 -116.565076 10.426962 17.769330 108.364532 18.316511 -1.087463 -119.639769 0.000000 0.000000 0.000000 -7.808239 26.888360 -23.001072 -30.188743 24.040335 -15.496147 64.934907 28.290577 9.535526 0.000000 0.000000 0.000000 -2.229628 -38.147048 -22.212165 45.692333 -23.671641 -17.217756 -75.867296 -39.138697 54.346586 0.000000 0.000000 0.000000 
0.060910 0.521971 0.033364 5.149309 -0.212226 54.048139 9.825886 -0.998456 30.937186 -16.230175 -5.941688 -75.531411 47.417791 25.851417 109.610450 0.000000 0.000000 0.000000 -19.381593 4.126463 30.090895 27.075455 6.167622 -56.599793 -48.840417 -30.776381 105.328653 0.000000 0.000000 0.000000 -0.194590 0.262036 -6.715469 23.305678 16.703730 -115.890908 10.841371 17.238988 108.096907 15.421853 -1.555543 -118.880003 0.000000 0.000000 0.000000 -7.665500 26.835019 -22.835127 -30.437763 22.630038 -15.244311 64.970574 30.336509 10.824077 0.000000 0.000000 0.000000 -1.452643 -38.392594 -22.410118 46.300137 -23.952877 -17.537749 -76.923691 -41.623475 57.481010 0.000000 0.000000 0.000000 
0.062165 0.521804 0.033983 4.854714 -0.406150 53.842724 9.794140 -0.933025 31.194356 -16.364455 -5.950104 -75.992349 48.862909 25.582690 111.235510 0.000000 0.000000 0.000000 -19.656555 4.290285 30.187520 27.321058 6.398254 -56.951771 -49.350242 -30.818569 105.469894 0.000000 0.000000 0.000000 -0.563170 0.327730 -6.879102 24.349541 17.118880 -114.464283 10.340187 17.884367 107.251370 14.902681 -1.692430 -118.463820 0.000000 0.000000 0.000000 -8.008471 27.046375 -23.198683 -30.032881 22.084795 -14.709822 65.010015 31.791808 11.600266 0.000000 0.000000 0.000000 -1.899041 -38.420450 -22.343927 46.359157 -24.517923 -17.337097 -78.369568 -43.843965 60.516912 0.000000 0.000000 0.000000 
0.063495 0.521112 0.034627 4.694370 -0.426557 53.676314 9.892464 -0.957118 31.498894 -16.634802 -6.153679 -76.695945 50.814300 25.316195 112.873650 0.000000 0.000000 0.000000 -19.807116 4.381709 30.542783 27.568565 6.635275 -57.715226 -50.359777 -31.043284 105.496099 0.000000 0.000000 0.000000 -0.441730 0.323421 -7.252415 24.133848 16.805039 -113.723728 10.256601 17.716276 107.037964 14.267448 -1.798668 -118.451691 0.000000 0.000000 0.000000 -7.818050 27.275124 -23.300381 -30.162929 21.714527 -14.652250 65.214259 33.019077 12.442576 0.000000 0.000000 0.000000 -1.770328 -38.632754 -22.497991 46.614286 -24.620850 -17.435562 -79.939874 -45.660377 63.632614 0.000000 0.000000 0.000000 
0.065028 0.520012 0.035452 4.404296 -0.674668 53.577391 9.600089 -0.764836 32.229642 -16.385877 -6.034857 -77.936736 51.065616 24.903203 114.250748 0.000000 0.000000 0.000000 -20.198028 4.622733 30.988997 27.658685 6.862781 -58.393868 -49.790257 -30.949724 105.212916 0.000000 0.000000 0.000000 0.216876 0.245191 -7.358690 24.140691 16.939889 -112.990440 10.520584 18.404209 107.159221 15.986256 -1.773798 -118.438667 0.000000 0.000000 0.000000 -7.262018 27.728134 -23.692577 -30.168866 21.298680 -14.403006 65.685175 34.706388 13.423441 0.000000 0.000000 0.000000 -1.468128 -39.281515 -22.845731 46.002655 -24.855144 -17.123382 -79.770721 -46.778599 64.505951 0.000000 0.000000 0.000000 
0.066695 0.518296 0.036271 4.313258 -0.598271 53.288814 9.511260 -0.710627 33.117586 -16.339007 -6.209116 -79.195079 52.478984 24.660081 115.378804 0.000000 0.000000 0.000000 -20.513606 4.782702 32.006975 28.256176 7.257334 -59.412201 -50.329271 -31.228986 104.731073 0.000000 0.000000 0.000000 0.988409 0.155439 -7.826021 23.943434 16.655704 -112.022122 10.554420 18.778809 107.537352 17.705286 -1.547414 -119.077035 0.000000 0.000000 0.000000 -7.609977 27.859790 -24.251779 -30.679534 20.974185 -14.604471 67.735616 36.058524 14.960429 0.000000 0.000000 0.000000 -0.911981 -39.714593 -23.213649 45.330051 -25.333187 -17.177593 -78.598587 -47.402341 63.868241 0.000000 0.000000 0.000000 
0.068307 0.516810 0.036897 4.740732 -0.262411 53.118727 9.559957 -0.799211 33.814076 -16.485839 -6.683480 -80.082011 52.726122 24.621825 115.411529 0.000000 0.000000 0.000000 -20.719586 4.790312 32.880265 28.522568 7.311626 -60.061770 -49.891066 -31.241468 104.452008 0.000000 0.000000 0.000000 1.759484 0.024969 -7.609003 23.385876 16.249139 -112.731294 10.758852 18.947341 108.402642 20.687998 -1.124061 -119.496898 0.000000 0.000000 0.000000 -7.583305 27.884045 -24.489295 -31.296946 20.695025 -14.910663 69.393290 37.616488 16.611681 0.000000 0.000000 0.000000 -0.829659 -40.088639 -23.506421 44.319562 -25.779354 -17.086766 -77.148177 -47.676027 62.485318 0.000000 0.000000 0.000000 
0.069753 0.515858 0.037035 5.293693 0.404269 53.016441 9.842667 -1.073944 33.914750 -16.345770 -7.080132 -80.715229 53.552666 24.251973 116.520984 0.000000 0.000000 0.000000 -20.632541 4.571624 33.507963 29.282117 7.499649 -60.823733 -52.195362 -31.979249 104.269180 0.000000 0.000000 0.000000 2.431923 -0.087014 -7.795186 22.880025 15.642691 -113.705651 10.583904 18.876363 109.677760 24.399060 -0.430545 -119.994366 0.000000 0.000000 0.000000 -7.850772 28.094118 -25.050211 -32.560323 20.533576 -15.732204 72.739263 38.761132 19.084711 0.000000 0.000000 0.000000 -0.814664 -40.159023 -23.690563 43.175897 -26.781671 -17.280556 -74.629758 -47.067149 58.998621 0.000000 0.000000 0.000000 
0.070737 0.514291 0.036742 5.390784 0.818372 53.190401 10.012366 -1.233087 33.851210 -16.023703 -7.179677 -81.598432 54.886350 23.812248 117.980478 0.000000 0.000000 0.000000 -20.682075 4.489030 33.730735 30.192224 7.794028 -61.195061 -53.430186 -32.262585 104.489282 0.000000 0.000000 0.000000 2.833117 -0.185430 -7.254016 23.015915 15.752128 -114.833640 10.666388 19.635163 110.793298 29.006944 0.302431 -121.033294 0.000000 0.000000 0.000000 -8.041115 27.956730 -25.380575 -33.688912 20.292992 -16.308240 76.426912 40.595672 22.158410 0.000000 0.000000 0.000000 0.096958 -40.426156 -23.911374 42.165168 -27.480011 -17.275567 -70.969976 -46.029188 54.635750 0.000000 0.000000 0.000000 
0.071404 0.513649 0.036456 5.292492 1.052578 53.543826 10.145664 -1.335933 33.468395 -16.004523 -7.248423 -81.782716 56.149901 23.872145 118.095422 0.000000 0.000000 0.000000 -20.636597 4.421101 33.362168 31.059096 8.054263 -61.072639 -54.856323 -32.906346 103.818930 0.000000 0.000000 0.000000 3.153566 -0.258329 -6.947629 22.513367 15.662703 -116.140582 10.514113 19.408202 111.853944 32.965683 1.137796 -121.315730 0.000000 0.000000 0.000000 -7.858548 28.461669 -25.777703 -35.027934 20.027972 -17.114339 79.032720 41.323162 24.600746 0.000000 0.000000 0.000000 -0.159556 -40.756365 -24.290716 41.496024 -28.195488 -17.320384 -68.331304 -44.039955 50.407641 0.000000 0.000000 0.000000 
0.071810 0.513775 0.036752 4.696440 0.985056 53.624434 10.150448 -1.291782 33.624980 -15.897790 -7.101322 -82.445949 57.734843 23.836519 118.624215 0.000000 0.000000 0.000000 -20.644405 4.481415 33.128807 32.001381 8.543748 -61.124295 -56.430696 -33.446107 103.504020 0.000000 0.000000 0.000000 3.164723 -0.265141 -6.808868 23.423115 16.798613 -117.120777 10.112321 20.408115 113.568598 36.808384 1.894439 -122.022043 0.000000 0.000000 0.000000 -8.733052 28.696534 -26.921086 -34.752232 20.166005 -17.152882 80.439396 41.071921 25.026248 0.000000 0.000000 0.000000 0.278240 -40.711266 -24.477843 40.960808 -28.578024 -17.529417 -66.281073 -42.306010 47.511066 0.000000 0.000000 0.000000 
0.072223 0.514058 0.037614 3.828781 0.290376 53.762268 9.825380 -0.968528 33.895235 -15.647812 -6.404392 -82.274586 55.312837 23.895789 118.090443 0.000000 0.000000 0.000000 -21.017164 4.842211 32.388792 32.469228 8.927293 -60.575213 -56.664192 -33.439584 103.478325 0.000000 0.000000 0.000000 3.099493 -0.255243 -6.320980 23.775056 18.082357 -118.071796 9.935268 21.053589 114.453756 41.613360 2.465966 -121.311831 0.000000 0.000000 0.000000 -8.103730 29.778343 -27.890932 -34.323695 20.998148 -17.064795 78.815263 39.064821 22.506627 0.000000 0.000000 0.000000 0.503779 -41.318462 -24.965561 40.090136 -28.752648 -17.190883 -64.854641 -39.998016 44.554490 0.000000 0.000000 0.000000 
0.073282 0.515164 0.038706 3.421737 0.097520 53.654790 10.193047 -1.067264 33.844523 -16.006608 -6.379952 -82.019582 54.594997 23.553808 118.921128 0.000000 0.000000 0.000000 -21.225506 4.974433 31.842469 32.882275 9.054042 -59.940948 -57.606587 -33.660056 103.565027 0.000000 0.000000 0.000000 2.759675 -0.168624 -6.746403 24.050534 18.276029 -117.529108 9.335781 20.843365 113.957203 43.752235 2.843948 -120.690712 0.000000 0.000000 0.000000 -7.933262 30.817164 -28.585241 -33.478472 21.916859 -16.745971 76.104327 36.006176 18.978967 0.000000 0.000000 0.000000 -0.091586 -41.864727 -25.460379 39.798776 -29.064711 -16.900295 -65.079144 -37.947379 43.055701 0.000000 0.000000 0.000000 
0.075094 0.515729 0.039679 2.742931 -0.715407 53.625759 9.928050 -0.761839 33.930979 -16.815259 -6.331077 -81.380893 54.977378 23.946177 118.115684 0.000000 0.000000 0.000000 -21.953088 5.476430 31.235899 32.767685 9.177614 -59.392053 -57.988363 -33.572094 103.860895 0.000000 0.000000 0.000000 2.567945 -0.087605 -7.088556 24.365700 19.257039 -117.448860 8.950817 21.174819 113.996255 46.594028 3.068628 -119.957905 0.000000 0.000000 0.000000 -6.380226 31.841876 -28.816838 -32.643285 23.922476 -16.817447 72.179420 31.163985 13.903582 0.000000 0.000000 0.000000 -0.051794 -41.762393 -25.398964 39.860946 -28.565634 -16.884161 -66.404471 -36.634137 43.358657 0.000000 0.000000 0.000000 
